<svg xmlns="http://www.w3.org/2000/svg" viewBox="0 0 200 200" width="400" height="400">
  <defs>
    <filter id="noise">
      <feTurbulence type="fractalNoise" baseFrequency="0.75" numOctaves="3" stitchTiles="stitch" result="noise"/>
      <feColorMatrix type="matrix" values="1 0 0 0 0, 0 1 0 0 0, 0 0 1 0 0, 0 0 0 0.35 0" in="noise" result="coloredNoise"/>
      <feComposite operator="in" in="coloredNoise" in2="SourceGraphic" result="monoNoise"/>
      <feBlend mode="multiply" in="SourceGraphic" in2="monoNoise"/>
    </filter>
    
    <filter id="drop-shadow" x="-20%" y="-20%" width="140%" height="140%">
      <feDropShadow dx="0" dy="8" stdDeviation="12" flood-color="#000" flood-opacity="0.8"/>
    </filter>
  </defs>

  <g filter="url(#drop-shadow)">
    <path d="M 30 180 L 30 100 C 30 85 40 70 50 65 C 65 55 75 40 100 40 C 125 40 135 55 150 65 C 160 70 170 85 170 100 L 170 180 Z" fill="#999" filter="url(#noise)"/>
    
    <path d="M 38 180 L 38 102 C 38 90 45 80 53 74 C 65 65 77 48 100 48 C 123 48 135 65 147 74 C 155 80 162 90 162 102 L 162 180 Z" fill="#b3b3b3" filter="url(#noise)"/>
  </g>

  <circle cx="100" cy="120" r="42" fill="#e6e6e6" filter="url(#noise)"/>
  <circle cx="100" cy="120" r="42" fill="none" stroke="#222" stroke-width="1.5"/>
  <circle cx="100" cy="120" r="39" fill="none" stroke="#555" stroke-width="0.5"/>

  <g stroke="#222" stroke-linecap="square">
    <line x1="100" y1="81" x2="100" y2="88" stroke-width="2.5"/> <line x1="139" y1="120" x2="132" y2="120" stroke-width="2.5"/> <line x1="100" y1="159" x2="100" y2="152" stroke-width="2.5"/> <line x1="61" y1="120" x2="68" y2="120" stroke-width="2.5"/> <line x1="119" y1="86" x2="116" y2="92" stroke-width="1.5"/>
    <line x1="134" y1="101" x2="128" y2="104" stroke-width="1.5"/>
    <line x1="134" y1="139" x2="128" y2="136" stroke-width="1.5"/>
    <line x1="119" y1="154" x2="116" y2="148" stroke-width="1.5"/>
    <line x1="81" y1="154" x2="84" y2="148" stroke-width="1.5"/>
    <line x1="66" y1="139" x2="72" y2="136" stroke-width="1.5"/>
    <line x1="66" y1="101" x2="72" y2="104" stroke-width="1.5"/>
    <line x1="81" y1="86" x2="84" y2="92" stroke-width="1.5"/>
  </g>

  <g filter="url(#drop-shadow)">
    <line x1="100" y1="120" x2="78" y2="108" stroke="#111" stroke-width="3.5" stroke-linecap="round"/>
    <circle cx="78" cy="108" r="1.5" fill="#111"/>
    
    <line x1="100" y1="120" x2="126" y2="107" stroke="#111" stroke-width="2" stroke-linecap="round"/>
    <circle cx="126" cy="107" r="1" fill="#111"/>
    
    <circle cx="100" cy="120" r="3.5" fill="#111"/>
    <circle cx="100" cy="120" r="1.5" fill="#888"/>
  </g>
  
  <linearGradient id="fade" x1="0%" y1="0%" x2="0%" y2="100%">
    <stop offset="60%" stop-color="#000" stop-opacity="0" />
    <stop offset="100%" stop-color="#000" stop-opacity="1" />
  </linearGradient>
  <rect x="0" y="140" width="200" height="60" fill="url(#fade)"/>
</svg>
